# xmcd CD database file
#
# Track frame offsets:
#	150
#	12199
#	29582
#	43582
#	59349
#	69885
#	90956
#	104523
#	124591
#	136616
#	149228
#	166527
#	179675
#	197144
#	210227
#	225247
#	244692
#	256989
#	270209
#
# Disc length: 3734 seconds
#
# Revision: 2
# Processed by: cddbd v1.5.1PL2 Copyright (c) Steve Scherf et al.
# Submitted via: CDex 1.51
#
DISCID=f70e9413
DTITLE=Various Artist - Sweet Soul Music CD2
DYEAR=2002
DGENRE=Soul
TTITLE0=Sam and Dave - Soul Man
TTITLE1=Donna Summer - Hot Stuff
TTITLE2=Eddie Floyd - Knock On Wood
TTITLE3=The Real Thing - You To Me Are Everything
TTITLE4=The Bar-Kays - Soul Finger
TTITLE5=Gladys Knight And The Pips - Midnight Train To Georgia
TTITLE6=Don Covay - See Saw
TTITLE7=Esther Phillips - What A Diffrence A Day Makes
TTITLE8=Archie Bell and The Drells - Tighten Up
TTITLE9=Aretha Franklin - Chain Of Fools
TTITLE10=Brook Benton - Rainy Night In Georgia
TTITLE11=Carla Thomas - B-A-B-Y
TTITLE12=Charles Wright and The Watts 103rd Street Rhythm Band - Express Yourself
TTITLE13=Booker T. and The MG´s - Green Onions
TTITLE14=Otis Redding - Try A Little Tenderness
TTITLE15=Rose Royce - Love Don´t Live Here Anymore
TTITLE16=The Temptations - My Girl
TTITLE17=Percy Sledge - When A Man Loves A Woman
TTITLE18=The Drifters - There Goes My Baby
EXTD=YEAR: 2002
EXTT0=
EXTT1=
EXTT2=
EXTT3=
EXTT4=
EXTT5=
EXTT6=
EXTT7=
EXTT8=
EXTT9=
EXTT10=
EXTT11=
EXTT12=
EXTT13=
EXTT14=
EXTT15=
EXTT16=
EXTT17=
EXTT18=
PLAYORDER=
